<?xml version="1.0" standalone="no"?><!DOCTYPE svg PUBLIC "-//W3C//DTD SVG 1.1//EN" "http://www.w3.org/Graphics/SVG/1.1/DTD/svg11.dtd"><svg t="1522379937939" class="icon" style="" viewBox="0 0 1024 1024" version="1.1" xmlns="http://www.w3.org/2000/svg" p-id="9631" xmlns:xlink="http://www.w3.org/1999/xlink" width="200" height="200"><defs><style type="text/css"></style></defs><path d="M489.511311 326.023308" p-id="9632"></path><path d="M512.001535 61.372789c-248.877277 0-450.629257 201.727421-450.629257 450.625164 0 248.868067 201.75198 450.630281 450.629257 450.630281 248.873184 0 450.625164-201.762213 450.625164-450.630281C962.621583 263.095094 760.874719 61.372789 512.001535 61.372789L512.001535 61.372789zM512.001535 926.574087c-228.965785 0-414.576133-185.631838-414.576133-414.574087 0-228.970902 185.610348-414.574087 414.576133-414.574087 228.961692 0 414.569994 185.603185 414.569994 414.574087C926.571529 740.942249 740.963227 926.574087 512.001535 926.574087L512.001535 926.574087zM284.046776 667.923212l82.226746 0L366.273523 372.402615 302.984081 372.402615l0-19.435655c29.402657-4.983501 51.828412-12.957103 69.270666-22.924105l23.422456 0 0 337.88138 75.748195 0 0 25.415856L284.046776 693.340091 284.046776 667.923212zM527.236518 675.398464c123.092479-106.147552 171.930791-180.901093 171.930791-246.682285 0-45.349861-22.923082-80.732719-74.254168-80.732719-31.397081 0-59.802014 19.435655-80.733743 45.349861l-18.438954-17.442254c27.409257-30.399357 58.306964-52.326762 102.161774-52.326762 63.290465 0 100.666724 41.36306 100.666724 104.155175 0 76.247568-58.805314 152.495136-155.485237 242.696508 19.934005-1.49505 40.865733-2.990101 59.802014-2.990101l113.125477 0 0 25.913183L527.236518 693.339068 527.236518 675.398464z" p-id="9633"></path></svg>