<?xml version="1.0" standalone="no"?><!DOCTYPE svg PUBLIC "-//W3C//DTD SVG 1.1//EN" "http://www.w3.org/Graphics/SVG/1.1/DTD/svg11.dtd"><svg t="1522379842188" class="icon" style="" viewBox="0 0 1024 1024" version="1.1" xmlns="http://www.w3.org/2000/svg" p-id="7007" xmlns:xlink="http://www.w3.org/1999/xlink" width="200" height="200"><defs><style type="text/css"></style></defs><path d="M489.511311 326.023308" p-id="7008"></path><path d="M512.001535 61.372789c-248.877277 0-450.629257 201.727421-450.629257 450.625164 0 248.868067 201.75198 450.630281 450.629257 450.630281 248.873184 0 450.625164-201.762213 450.625164-450.630281C962.621583 263.095094 760.874719 61.372789 512.001535 61.372789L512.001535 61.372789zM512.001535 926.574087c-228.965785 0-414.576133-185.631838-414.576133-414.574087 0-228.970902 185.610348-414.574087 414.576133-414.574087 228.961692 0 414.569994 185.603185 414.569994 414.574087C926.571529 740.942249 740.963227 926.574087 512.001535 926.574087L512.001535 926.574087zM284.046776 667.923212l82.226746 0L366.273523 372.402615 302.984081 372.402615l0-19.435655c29.402657-4.983501 51.828412-12.957103 69.270666-22.924105l23.422456 0 0 337.88138 75.748195 0 0 25.415856L284.046776 693.340091 284.046776 667.923212zM754.483148 589.682243l-51.329039 0 0 103.656825-28.40698 0L674.747129 589.682243 514.278391 589.682243 514.278391 571.243289l160.467715-241.200434 28.40698 0 0 235.220233 51.329039 0L754.482125 589.682243zM674.747129 565.263088 674.747129 431.206906c0-16.445554 1.496074-43.35646 2.991124-60.300364l-2.492774 0c-8.471952 16.445554-18.438954 33.887808-28.904307 50.333362l-98.673323 144.023184L674.747129 565.263088z" p-id="7009"></path></svg>