<?xml version="1.0" standalone="no"?><!DOCTYPE svg PUBLIC "-//W3C//DTD SVG 1.1//EN" "http://www.w3.org/Graphics/SVG/1.1/DTD/svg11.dtd"><svg t="1522379887836" class="icon" style="" viewBox="0 0 1024 1024" version="1.1" xmlns="http://www.w3.org/2000/svg" p-id="8168" xmlns:xlink="http://www.w3.org/1999/xlink" width="200" height="200"><defs><style type="text/css"></style></defs><path d="M489.511311 326.023308" p-id="8169"></path><path d="M512.001535 61.372789c-248.877277 0-450.629257 201.727421-450.629257 450.625164 0 248.868067 201.75198 450.630281 450.629257 450.630281 248.873184 0 450.625164-201.762213 450.625164-450.630281C962.621583 263.095094 760.874719 61.372789 512.001535 61.372789L512.001535 61.372789zM512.001535 926.574087c-228.965785 0-414.576133-185.631838-414.576133-414.574087 0-228.970902 185.610348-414.574087 414.576133-414.574087 228.961692 0 414.569994 185.603185 414.569994 414.574087C926.571529 740.942249 740.963227 926.574087 512.001535 926.574087L512.001535 926.574087zM284.046776 667.923212l82.226746 0L366.273523 372.402615 302.984081 372.402615l0-19.435655c29.402657-4.983501 51.828412-12.957103 69.270666-22.924105l23.422456 0 0 337.88138 75.748195 0 0 25.415856L284.046776 693.340091 284.046776 667.923212zM552.65135 645.995807c16.445554 18.937305 38.372959 28.904307 63.290465 28.904307 50.334385 0 95.683223-43.85481 98.673323-169.43904-23.920806 28.904307-54.81749 48.338938-88.706321 48.338938-60.798714 0-98.17395-40.365336-98.17395-114.121154 0-68.273966 45.348837-116.115578 98.17395-116.115578 70.267367 0 117.112278 58.805314 117.112278 168.44234 0 152.992463-61.297065 207.811999-127.57763 207.811999-35.382858 0-60.798714-14.452153-80.234369-34.884508L552.65135 645.995807zM714.117812 477.055117c-2.990101-79.237669-31.894408-129.571031-88.707344-129.571031-39.369659 0-68.772316 39.369659-68.772316 92.194772 0 52.326762 22.425755 90.699722 72.760141 90.699722C656.308175 530.378579 686.707532 514.929726 714.117812 477.055117z" p-id="8170"></path></svg>