<?xml version="1.0" standalone="no"?><!DOCTYPE svg PUBLIC "-//W3C//DTD SVG 1.1//EN" "http://www.w3.org/Graphics/SVG/1.1/DTD/svg11.dtd"><svg t="1522379868258" class="icon" style="" viewBox="0 0 1024 1024" version="1.1" xmlns="http://www.w3.org/2000/svg" p-id="7652" xmlns:xlink="http://www.w3.org/1999/xlink" width="200" height="200"><defs><style type="text/css"></style></defs><path d="M489.511311 326.023308" p-id="7653"></path><path d="M512.001535 61.372789c-248.877277 0-450.629257 201.727421-450.629257 450.625164 0 248.868067 201.75198 450.630281 450.629257 450.630281 248.873184 0 450.625164-201.762213 450.625164-450.630281C962.621583 263.095094 760.874719 61.372789 512.001535 61.372789L512.001535 61.372789zM512.001535 926.574087c-228.965785 0-414.576133-185.631838-414.576133-414.574087 0-228.970902 185.610348-414.574087 414.576133-414.574087 228.961692 0 414.569994 185.603185 414.569994 414.574087C926.571529 740.942249 740.963227 926.574087 512.001535 926.574087L512.001535 926.574087zM260.624321 675.398464C383.7168 569.249889 432.555112 494.497371 432.555112 428.715155c0-45.349861-22.924105-80.732719-74.254168-80.732719-31.396057 0-59.802014 19.435655-80.732719 45.349861l-18.438954-17.442254c27.409257-30.399357 58.306964-52.326762 102.161774-52.326762 63.290465 0 100.666724 41.36306 100.666724 104.155175 0 76.247568-58.805314 152.495136-155.485237 242.696508 19.934005-1.49505 40.86471-2.990101 59.802014-2.990101l113.125477 0 0 25.913183L260.624321 693.338045 260.624321 675.398464zM520.258593 649.982608l16.445554-19.435655c20.930705 22.426779 49.336662 44.354184 95.683223 44.354184 46.844911 0 80.732719-30.897707 80.732719-77.743642 0-48.838312-33.886785-81.729419-120.600729-81.729419l0-24.419156c79.736019 0 107.642602-34.386158 107.642602-77.742619 0-39.369659-26.910906-65.283866-68.771293-65.782216-31.397081 0.49835-59.802014 16.943904-79.736019 38.372959l-16.944927-19.934005c24.918529-23.422456 55.815213-42.35976 97.178273-42.85811 55.815213 0.49835 98.174973 31.894408 98.174973 88.207971 0 46.844911-27.907607 76.745918-66.778916 89.703021l0 2.491751c43.853787 9.468652 79.736019 42.360783 79.736019 93.689822 0 63.291488-47.841611 102.660124-109.638049 102.660124C577.07153 699.81762 543.182698 674.401764 520.258593 649.982608z" p-id="7654"></path></svg>