<?xml version="1.0" standalone="no"?><!DOCTYPE svg PUBLIC "-//W3C//DTD SVG 1.1//EN" "http://www.w3.org/Graphics/SVG/1.1/DTD/svg11.dtd"><svg t="1522379903463" class="icon" style="" viewBox="0 0 1024 1024" version="1.1" xmlns="http://www.w3.org/2000/svg" p-id="8684" xmlns:xlink="http://www.w3.org/1999/xlink" width="200" height="200"><defs><style type="text/css"></style></defs><path d="M489.511311 326.023308" p-id="8685"></path><path d="M512.001535 61.372789c-248.877277 0-450.629257 201.727421-450.629257 450.625164 0 248.868067 201.75198 450.630281 450.629257 450.630281 248.873184 0 450.625164-201.762213 450.625164-450.630281C962.621583 263.095094 760.874719 61.372789 512.001535 61.372789L512.001535 61.372789zM512.001535 926.574087c-228.965785 0-414.576133-185.631838-414.576133-414.574087 0-228.970902 185.610348-414.574087 414.576133-414.574087 228.961692 0 414.569994 185.603185 414.569994 414.574087C926.571529 740.942249 740.963227 926.574087 512.001535 926.574087L512.001535 926.574087zM260.624321 675.398464C383.7168 569.249889 432.555112 494.497371 432.555112 428.715155c0-45.349861-22.924105-80.732719-74.254168-80.732719-31.396057 0-59.802014 19.435655-80.732719 45.349861l-18.438954-17.442254c27.409257-30.399357 58.306964-52.326762 102.161774-52.326762 63.290465 0 100.666724 41.36306 100.666724 104.155175 0 76.247568-58.805314 152.495136-155.485237 242.696508 19.934005-1.49505 40.86471-2.990101 59.802014-2.990101l113.125477 0 0 25.913183L260.624321 693.338045 260.624321 675.398464zM724.582141 377.385093c-15.448854-18.937305-36.877909-28.904307-59.303664-28.904307-54.81749 0-101.164051 43.35646-102.659101 168.441317 23.920806-29.402657 55.815213-47.343261 87.709621-47.343261 61.795415 0 98.673323 39.369659 98.673323 114.122177 0 68.273966-45.349861 116.115578-98.174973 116.115578-70.266343 0-116.612904-62.293765-116.612904-177.910992 0-146.514935 62.293765-198.343347 130.567731-198.343347 33.886785 0 58.306964 13.953803 77.243245 34.884508L724.582141 377.385093zM720.09699 583.702042c0-52.825113-21.927405-90.699722-73.755818-90.699722-23.920806 0-55.316863 13.953803-83.22447 51.828412 4.486174 79.736019 32.892131 130.567731 88.207971 130.567731C690.694333 675.398464 720.09699 636.527155 720.09699 583.702042z" p-id="8686"></path></svg>