<?xml version="1.0" standalone="no"?><!DOCTYPE svg PUBLIC "-//W3C//DTD SVG 1.1//EN" "http://www.w3.org/Graphics/SVG/1.1/DTD/svg11.dtd"><svg t="1522379899349" class="icon" style="" viewBox="0 0 1024 1024" version="1.1" xmlns="http://www.w3.org/2000/svg" p-id="8555" xmlns:xlink="http://www.w3.org/1999/xlink" width="200" height="200"><defs><style type="text/css"></style></defs><path d="M489.511311 326.023308" p-id="8556"></path><path d="M512.001535 61.372789c-248.877277 0-450.629257 201.727421-450.629257 450.625164 0 248.868067 201.75198 450.630281 450.629257 450.630281 248.873184 0 450.625164-201.762213 450.625164-450.630281C962.621583 263.095094 760.874719 61.372789 512.001535 61.372789L512.001535 61.372789zM512.001535 926.574087c-228.965785 0-414.576133-185.631838-414.576133-414.574087 0-228.970902 185.610348-414.574087 414.576133-414.574087 228.961692 0 414.569994 185.603185 414.569994 414.574087C926.571529 740.942249 740.963227 926.574087 512.001535 926.574087L512.001535 926.574087zM260.624321 675.398464C383.7168 569.249889 432.555112 494.497371 432.555112 428.715155c0-45.349861-22.924105-80.732719-74.254168-80.732719-31.396057 0-59.802014 19.435655-80.732719 45.349861l-18.438954-17.442254c27.409257-30.399357 58.306964-52.326762 102.161774-52.326762 63.290465 0 100.666724 41.36306 100.666724 104.155175 0 76.247568-58.805314 152.495136-155.485237 242.696508 19.934005-1.49505 40.86471-2.990101 59.802014-2.990101l113.125477 0 0 25.913183L260.624321 693.338045 260.624321 675.398464zM712.622762 355.458711 528.730545 355.458711l0-25.415856 219.273029 0 0 17.442254c-86.213547 113.125477-104.154151 203.825199-109.637026 345.854982l-31.396057 0C612.951715 548.319184 640.360971 456.124412 712.622762 355.458711z" p-id="8557"></path></svg>