<?xml version="1.0" standalone="no"?><!DOCTYPE svg PUBLIC "-//W3C//DTD SVG 1.1//EN" "http://www.w3.org/Graphics/SVG/1.1/DTD/svg11.dtd"><svg t="1522379895542" class="icon" style="" viewBox="0 0 1024 1024" version="1.1" xmlns="http://www.w3.org/2000/svg" p-id="8426" xmlns:xlink="http://www.w3.org/1999/xlink" width="200" height="200"><defs><style type="text/css"></style></defs><path d="M489.511311 326.023308" p-id="8427"></path><path d="M512.001535 61.372789c-248.877277 0-450.629257 201.727421-450.629257 450.625164 0 248.868067 201.75198 450.630281 450.629257 450.630281 248.873184 0 450.625164-201.762213 450.625164-450.630281C962.621583 263.095094 760.874719 61.372789 512.001535 61.372789L512.001535 61.372789zM512.001535 926.574087c-228.965785 0-414.576133-185.631838-414.576133-414.574087 0-228.970902 185.610348-414.574087 414.576133-414.574087 228.961692 0 414.569994 185.603185 414.569994 414.574087C926.571529 740.942249 740.963227 926.574087 512.001535 926.574087L512.001535 926.574087zM260.624321 675.398464C383.7168 569.249889 432.555112 494.497371 432.555112 428.715155c0-45.349861-22.924105-80.732719-74.254168-80.732719-31.396057 0-59.802014 19.435655-80.732719 45.349861l-18.438954-17.442254c27.409257-30.399357 58.306964-52.326762 102.161774-52.326762 63.290465 0 100.666724 41.36306 100.666724 104.155175 0 76.247568-58.805314 152.495136-155.485237 242.696508 19.934005-1.49505 40.86471-2.990101 59.802014-2.990101l113.125477 0 0 25.913183L260.624321 693.338045 260.624321 675.398464zM527.236518 603.137697c0-49.833989 35.880185-85.216847 69.270666-103.655801l0-1.9934c-25.914206-17.442254-49.835012-44.353161-49.835012-82.72612 0-52.825113 40.86471-89.703021 93.689822-89.703021 60.300364 0 96.181573 40.36636 96.181573 95.184873 0 39.369659-29.402657 73.755818-49.835012 90.200348l0 2.491751c30.897707 18.439978 61.795415 44.851511 61.795415 94.685499 0 51.331086-43.853787 92.195795-108.640326 92.195795C574.578756 699.81762 527.236518 658.45456 527.236518 603.137697zM719.59864 607.124498c0-55.316863-50.831712-75.250868-105.649202-96.679923-34.387181 20.432355-59.303664 51.828412-59.303664 91.198072 0 42.360783 35.880185 74.753541 85.216847 74.753541C688.202583 676.395164 719.59864 645.995807 719.59864 607.124498zM709.632661 421.239903c0-39.369659-25.416879-72.759117-69.77004-72.759117-37.874609 0-65.283866 27.906583-65.283866 66.280566 0 49.336662 45.349861 69.769017 90.699722 87.709621C694.182784 478.550167 709.632661 451.14091 709.632661 421.239903z" p-id="8428"></path></svg>