<?xml version="1.0" standalone="no"?><!DOCTYPE svg PUBLIC "-//W3C//DTD SVG 1.1//EN" "http://www.w3.org/Graphics/SVG/1.1/DTD/svg11.dtd"><svg t="1522379848223" class="icon" style="" viewBox="0 0 1024 1024" version="1.1" xmlns="http://www.w3.org/2000/svg" p-id="7136" xmlns:xlink="http://www.w3.org/1999/xlink" width="200" height="200"><defs><style type="text/css"></style></defs><path d="M489.511311 326.023308" p-id="7137"></path><path d="M512.001535 61.372789c-248.877277 0-450.629257 201.727421-450.629257 450.625164 0 248.868067 201.75198 450.630281 450.629257 450.630281 248.873184 0 450.625164-201.762213 450.625164-450.630281C962.621583 263.095094 760.874719 61.372789 512.001535 61.372789L512.001535 61.372789zM512.001535 926.574087c-228.965785 0-414.576133-185.631838-414.576133-414.574087 0-228.970902 185.610348-414.574087 414.576133-414.574087 228.961692 0 414.569994 185.603185 414.569994 414.574087C926.571529 740.942249 740.963227 926.574087 512.001535 926.574087L512.001535 926.574087zM253.647419 649.982608l16.445554-19.435655c20.930705 22.426779 49.336662 44.354184 95.683223 44.354184 46.844911 0 80.732719-30.897707 80.732719-77.743642 0-48.838312-33.887808-81.729419-120.600729-81.729419l0-24.419156c79.736019 0 107.643626-34.386158 107.643626-77.742619 0-39.369659-26.910906-65.283866-68.772316-65.782216-31.396057 0.49835-59.802014 16.943904-79.736019 38.372959l-16.943904-19.934005c24.917506-23.422456 55.815213-42.35976 97.178273-42.85811 55.815213 0.49835 98.17395 31.894408 98.17395 88.207971 0 46.844911-27.906583 76.745918-66.778916 89.703021l0 2.491751c43.85481 9.468652 79.736019 42.360783 79.736019 93.689822 0 63.291488-47.841611 102.660124-109.637026 102.660124C310.459333 699.81762 276.571525 674.401764 253.647419 649.982608zM550.65795 667.923212l82.22777 0L632.885719 372.402615l-63.291488 0 0-19.435655c29.402657-4.983501 51.828412-12.957103 69.270666-22.924105l23.422456 0 0 337.88138 75.749218 0 0 25.415856L550.65795 693.340091 550.65795 667.923212z" p-id="7138"></path></svg>