<?xml version="1.0" standalone="no"?><!DOCTYPE svg PUBLIC "-//W3C//DTD SVG 1.1//EN" "http://www.w3.org/Graphics/SVG/1.1/DTD/svg11.dtd"><svg t="1522379965417" class="icon" style="" viewBox="0 0 1024 1024" version="1.1" xmlns="http://www.w3.org/2000/svg" p-id="10534" xmlns:xlink="http://www.w3.org/1999/xlink" width="200" height="200"><defs><style type="text/css"></style></defs><path d="M489.511311 326.023308" p-id="10535"></path><path d="M512.001535 61.372789c-248.877277 0-450.629257 201.727421-450.629257 450.625164 0 248.868067 201.75198 450.630281 450.629257 450.630281 248.873184 0 450.625164-201.762213 450.625164-450.630281C962.621583 263.095094 760.874719 61.372789 512.001535 61.372789L512.001535 61.372789zM512.001535 926.574087c-228.965785 0-414.576133-185.631838-414.576133-414.574087 0-228.970902 185.610348-414.574087 414.576133-414.574087 228.961692 0 414.569994 185.603185 414.569994 414.574087C926.571529 740.942249 740.963227 926.574087 512.001535 926.574087L512.001535 926.574087zM264.611122 510.444575c0-126.08258 40.86471-186.881294 107.145276-186.881294 65.782216 0 106.646925 60.798714 106.646925 186.881294 0 127.576607-40.86471 189.373045-106.646925 189.373045C305.475831 699.81762 264.611122 638.021182 264.611122 510.444575zM449.499016 510.444575c0-108.141976-30.897707-162.462139-77.742619-162.462139-47.343261 0-78.240969 54.320163-78.240969 162.462139 0 110.134353 30.897707 164.953889 78.240969 164.953889C418.601308 675.398464 449.499016 620.579951 449.499016 510.444575zM754.483148 589.682243l-51.329039 0 0 103.656825-28.40698 0L674.747129 589.682243 514.278391 589.682243 514.278391 571.243289l160.467715-241.200434 28.40698 0 0 235.220233 51.329039 0L754.482125 589.682243zM674.747129 565.263088 674.747129 431.206906c0-16.445554 1.496074-43.35646 2.991124-60.300364l-2.492774 0c-8.471952 16.445554-18.438954 33.887808-28.904307 50.333362l-98.673323 144.023184L674.747129 565.263088z" p-id="10536"></path></svg>