<?xml version="1.0" standalone="no"?><!DOCTYPE svg PUBLIC "-//W3C//DTD SVG 1.1//EN" "http://www.w3.org/Graphics/SVG/1.1/DTD/svg11.dtd"><svg t="1522379960898" class="icon" style="" viewBox="0 0 1024 1024" version="1.1" xmlns="http://www.w3.org/2000/svg" p-id="10405" xmlns:xlink="http://www.w3.org/1999/xlink" width="200" height="200"><defs><style type="text/css"></style></defs><path d="M489.511311 326.023308" p-id="10406"></path><path d="M512.001535 61.372789c-248.877277 0-450.629257 201.727421-450.629257 450.625164 0 248.868067 201.75198 450.630281 450.629257 450.630281 248.873184 0 450.625164-201.762213 450.625164-450.630281C962.621583 263.095094 760.874719 61.372789 512.001535 61.372789L512.001535 61.372789zM512.001535 926.574087c-228.965785 0-414.576133-185.631838-414.576133-414.574087 0-228.970902 185.610348-414.574087 414.576133-414.574087 228.961692 0 414.569994 185.603185 414.569994 414.574087C926.571529 740.942249 740.963227 926.574087 512.001535 926.574087L512.001535 926.574087zM264.611122 510.444575c0-126.08258 40.86471-186.881294 107.145276-186.881294 65.782216 0 106.646925 60.798714 106.646925 186.881294 0 127.576607-40.86471 189.373045-106.646925 189.373045C305.475831 699.81762 264.611122 638.021182 264.611122 510.444575zM449.499016 510.444575c0-108.141976-30.897707-162.462139-77.742619-162.462139-47.343261 0-78.240969 54.320163-78.240969 162.462139 0 110.134353 30.897707 164.953889 78.240969 164.953889C418.601308 675.398464 449.499016 620.579951 449.499016 510.444575zM518.763542 652.474358l15.947204-20.432355c20.930705 21.927405 47.841611 42.859134 95.185896 42.859134 45.848211 0 84.718497-38.373982 84.718497-97.178273 0-57.809637-32.391734-93.191472-83.223447-93.191472-26.41358 0-43.85481 8.970302-64.287165 22.924105l-18.937305-11.462053 12.458753-165.949566 165.95059 0 0 25.415856L586.540182 355.459734 576.073806 477.553467c17.442254-10.465352 35.881209-17.442254 60.798714-17.442254 59.802014 0 107.643626 35.880185 107.643626 116.613928 0 78.738295-55.815213 123.092479-113.623827 123.092479C574.578756 699.81762 542.187021 675.398464 518.763542 652.474358z" p-id="10407"></path></svg>