<?xml version="1.0" standalone="no"?><!DOCTYPE svg PUBLIC "-//W3C//DTD SVG 1.1//EN" "http://www.w3.org/Graphics/SVG/1.1/DTD/svg11.dtd"><svg t="1522379957104" class="icon" style="" viewBox="0 0 1024 1024" version="1.1" xmlns="http://www.w3.org/2000/svg" p-id="10276" xmlns:xlink="http://www.w3.org/1999/xlink" width="200" height="200"><defs><style type="text/css"></style></defs><path d="M489.511311 326.023308" p-id="10277"></path><path d="M512.001535 61.372789c-248.877277 0-450.629257 201.727421-450.629257 450.625164 0 248.868067 201.75198 450.630281 450.629257 450.630281 248.873184 0 450.625164-201.762213 450.625164-450.630281C962.621583 263.095094 760.874719 61.372789 512.001535 61.372789L512.001535 61.372789zM512.001535 926.574087c-228.965785 0-414.576133-185.631838-414.576133-414.574087 0-228.970902 185.610348-414.574087 414.576133-414.574087 228.961692 0 414.569994 185.603185 414.569994 414.574087C926.571529 740.942249 740.963227 926.574087 512.001535 926.574087L512.001535 926.574087zM264.611122 510.444575c0-126.08258 40.86471-186.881294 107.145276-186.881294 65.782216 0 106.646925 60.798714 106.646925 186.881294 0 127.576607-40.86471 189.373045-106.646925 189.373045C305.475831 699.81762 264.611122 638.021182 264.611122 510.444575zM449.499016 510.444575c0-108.141976-30.897707-162.462139-77.742619-162.462139-47.343261 0-78.240969 54.320163-78.240969 162.462139 0 110.134353 30.897707 164.953889 78.240969 164.953889C418.601308 675.398464 449.499016 620.579951 449.499016 510.444575zM724.582141 377.385093c-15.448854-18.937305-36.877909-28.904307-59.303664-28.904307-54.81749 0-101.164051 43.35646-102.659101 168.441317 23.920806-29.402657 55.815213-47.343261 87.709621-47.343261 61.795415 0 98.673323 39.369659 98.673323 114.122177 0 68.273966-45.349861 116.115578-98.174973 116.115578-70.266343 0-116.612904-62.293765-116.612904-177.910992 0-146.514935 62.293765-198.343347 130.567731-198.343347 33.886785 0 58.306964 13.953803 77.243245 34.884508L724.582141 377.385093zM720.09699 583.702042c0-52.825113-21.927405-90.699722-73.755818-90.699722-23.920806 0-55.316863 13.953803-83.22447 51.828412 4.486174 79.736019 32.892131 130.567731 88.207971 130.567731C690.694333 675.398464 720.09699 636.527155 720.09699 583.702042z" p-id="10278"></path></svg>