<?xml version="1.0" standalone="no"?><!DOCTYPE svg PUBLIC "-//W3C//DTD SVG 1.1//EN" "http://www.w3.org/Graphics/SVG/1.1/DTD/svg11.dtd"><svg t="1522828016929" class="icon" style="" viewBox="0 0 1024 1024" version="1.1" xmlns="http://www.w3.org/2000/svg" p-id="3536" xmlns:xlink="http://www.w3.org/1999/xlink" width="200" height="200"><defs><style type="text/css"></style></defs><path d="M853.333333 896l-170.666667 0c-25.6 0-42.666667-17.066667-42.666667-42.666667s17.066667-42.666667 42.666667-42.666667l170.666667 0c25.6 0 42.666667 17.066667 42.666667 42.666667S878.933333 896 853.333333 896z" p-id="3537"></path><path d="M853.333333 896c-25.6 0-42.666667-17.066667-42.666667-42.666667l0-170.666667c0-25.6 17.066667-42.666667 42.666667-42.666667s42.666667 17.066667 42.666667 42.666667l0 170.666667C896 878.933333 878.933333 896 853.333333 896z" p-id="3538"></path><path d="M341.333333 213.333333 170.666667 213.333333C145.066667 213.333333 128 196.266667 128 170.666667s17.066667-42.666667 42.666667-42.666667l170.666667 0c25.6 0 42.666667 17.066667 42.666667 42.666667S366.933333 213.333333 341.333333 213.333333z" p-id="3539"></path><path d="M170.666667 384C145.066667 384 128 366.933333 128 341.333333L128 170.666667c0-25.6 17.066667-42.666667 42.666667-42.666667s42.666667 17.066667 42.666667 42.666667l0 170.666667C213.333333 366.933333 196.266667 384 170.666667 384z" p-id="3540"></path><path d="M844.8 887.466667c-12.8 0-21.333333-4.266667-29.866667-12.8L149.333333 209.066667c-17.066667-17.066667-17.066667-42.666667 0-59.733333s42.666667-17.066667 59.733333 0l665.6 665.6c17.066667 17.066667 17.066667 42.666667 0 59.733333C866.133333 883.2 853.333333 887.466667 844.8 887.466667z" p-id="3541"></path></svg>