<?xml version="1.0" standalone="no"?><!DOCTYPE svg PUBLIC "-//W3C//DTD SVG 1.1//EN" "http://www.w3.org/Graphics/SVG/1.1/DTD/svg11.dtd"><svg class="icon" width="200px" height="200.00px" viewBox="0 0 1024 1024" version="1.1" xmlns="http://www.w3.org/2000/svg"><path fill="#333333" d="M192 202.4V896c0 35.2 28.8 64 64 64h512c35.2 0 64-28.8 64-64V202.4L512 256l-320-53.6z m412.8 242.4l45.6 45.6L563.2 576H640v64H544v32h96v64H544v96h-64V736H384v-64h96v-32H384v-64h76.8L374.4 489.6l45.6-45.6L512 536.8l92.8-92zM768 64H256c-35.2 0-64 28.8-64 64v42.4L512 224l320-53.6V128c0-35.2-28.8-64-64-64z" /></svg>